<?xml version="1.0" standalone="no"?>
<!DOCTYPE svg PUBLIC "-//W3C//DTD SVG 20010904//EN"
 "http://www.w3.org/TR/2001/REC-SVG-20010904/DTD/svg10.dtd">
<svg version="1.0" xmlns="http://www.w3.org/2000/svg"
 width="512.000000pt" height="512.000000pt" viewBox="0 0 512.000000 512.000000"
 preserveAspectRatio="xMidYMid meet">
<metadata>
Created by potrace 1.16, written by Peter Selinger 2001-2019
</metadata>
<g transform="translate(0.000000,512.000000) scale(0.100000,-0.100000)"
fill="#000000" stroke="none">
<path d="M977 5104 c-475 -86 -859 -464 -956 -941 -21 -99 -21 -127 -21 -1603
0 -1476 0 -1504 21 -1603 86 -422 389 -763 800 -901 171 -57 137 -56 1554 -56
1432 0 1371 -2 1553 61 106 37 216 95 302 159 36 27 198 183 361 347 348 350
391 409 467 625 64 182 62 120 62 1553 0 1127 -2 1314 -15 1391 -86 489 -480
883 -969 969 -77 13 -281 15 -1585 14 -1244 -1 -1509 -3 -1574 -15z m3118
-408 c97 -24 258 -105 329 -164 125 -104 222 -258 268 -427 22 -80 22 -81 26
-1202 l3 -1122 -363 -3 c-410 -5 -418 -6 -573 -83 -164 -80 -280 -196 -360
-360 -77 -155 -78 -163 -83 -573 l-3 -363 -1122 3 -1122 4 -80 22 c-169 47
-325 144 -425 265 -65 79 -143 239 -167 342 -17 75 -18 163 -18 1525 0 1641
-6 1517 85 1705 84 172 193 281 365 365 97 47 198 76 295 83 25 2 682 3 1460
2 1320 -1 1420 -2 1485 -19z m580 -3353 c-13 -53 -64 -149 -113 -213 -71 -93
-546 -559 -615 -604 -55 -36 -164 -86 -187 -86 -8 0 -10 94 -8 318 l3 317 27
57 c31 68 105 149 166 185 83 49 107 52 431 52 l303 1 -7 -27z"/>
<path d="M1273 3914 c-62 -37 -93 -95 -93 -174 0 -80 31 -138 94 -175 l43 -25
1243 0 1243 0 43 25 c63 37 94 95 94 175 0 80 -31 138 -94 175 l-43 25 -1244
0 -1244 0 -42 -26z"/>
<path d="M1273 2734 c-62 -37 -93 -95 -93 -174 0 -80 31 -138 94 -175 l43 -25
1243 0 1243 0 43 25 c63 37 94 95 94 175 0 80 -31 138 -94 175 l-43 25 -1244
0 -1244 0 -42 -26z"/>
<path d="M1273 1554 c-62 -37 -93 -95 -93 -174 0 -80 31 -138 94 -175 l43 -25
653 0 653 0 43 25 c63 37 94 95 94 175 0 80 -31 138 -94 175 l-43 25 -654 0
-654 0 -42 -26z"/>
</g>
</svg>
