<?xml version="1.0" standalone="no"?>
<!DOCTYPE svg PUBLIC "-//W3C//DTD SVG 20010904//EN"
 "http://www.w3.org/TR/2001/REC-SVG-20010904/DTD/svg10.dtd">
<svg version="1.0" xmlns="http://www.w3.org/2000/svg"
 width="512.000000pt" height="512.000000pt" viewBox="0 0 512.000000 512.000000"
 preserveAspectRatio="xMidYMid meet">
<metadata>
Created by potrace 1.16, written by Peter Selinger 2001-2019
</metadata>
<g transform="translate(0.000000,512.000000) scale(0.100000,-0.100000)"
fill="#000000" stroke="none">
<path d="M303 4490 c-188 -67 -303 -231 -303 -430 0 -259 191 -450 450 -450
259 0 450 191 450 450 0 201 -117 365 -307 431 -75 25 -216 25 -290 -1z"/>
<path d="M1503 4490 c-188 -67 -303 -231 -303 -430 0 -201 117 -365 307 -431
55 -19 97 -19 1653 -19 1556 0 1598 0 1653 19 190 66 307 230 307 431 0 201
-117 365 -307 431 -55 19 -96 19 -1657 18 -1534 0 -1603 -1 -1653 -19z"/>
<path d="M303 2990 c-188 -67 -303 -231 -303 -430 0 -259 191 -450 450 -450
259 0 450 191 450 450 0 201 -117 365 -307 431 -75 25 -216 25 -290 -1z"/>
<path d="M1503 2990 c-188 -67 -303 -231 -303 -430 0 -201 117 -365 307 -431
55 -19 97 -19 1653 -19 1556 0 1598 0 1653 19 190 66 307 230 307 431 0 201
-117 365 -307 431 -55 19 -96 19 -1657 18 -1534 0 -1603 -1 -1653 -19z"/>
<path d="M303 1490 c-188 -67 -303 -231 -303 -430 0 -259 191 -450 450 -450
259 0 450 191 450 450 0 201 -117 365 -307 431 -75 25 -216 25 -290 -1z"/>
<path d="M1503 1490 c-188 -67 -303 -231 -303 -430 0 -201 117 -365 307 -431
55 -19 97 -19 1653 -19 1556 0 1598 0 1653 19 190 66 307 230 307 431 0 201
-117 365 -307 431 -55 19 -96 19 -1657 18 -1534 0 -1603 -1 -1653 -19z"/>
</g>
</svg>
